<mxfile host="app.diagrams.net" modified="2024-02-21T14:50:21.103Z" agent="Mozilla/5.0 (Windows NT 10.0; Win64; x64) AppleWebKit/537.36 (KHTML, like Gecko) Chrome/120.0.0.0 YaBrowser/24.1.0.0 Safari/537.36" etag="cZNb1T7OIuH7Ak1ZV3ZM" version="23.1.4" type="device">
  <diagram name="Страница — 1" id="Y_MSueDvMAxtepzq8LtV">
    <mxGraphModel dx="1431" dy="821" grid="1" gridSize="10" guides="1" tooltips="1" connect="1" arrows="1" fold="1" page="1" pageScale="1" pageWidth="827" pageHeight="1169" math="0" shadow="0">
      <root>
        <mxCell id="0" />
        <mxCell id="1" parent="0" />
        <mxCell id="NAd22-JIo6woVSlLRPpV-1" value="Guest" style="shape=umlActor;verticalLabelPosition=bottom;verticalAlign=top;html=1;outlineConnect=0;" vertex="1" parent="1">
          <mxGeometry x="230" y="130" width="30" height="60" as="geometry" />
        </mxCell>
        <mxCell id="NAd22-JIo6woVSlLRPpV-2" value="User" style="shape=umlActor;verticalLabelPosition=bottom;verticalAlign=top;html=1;outlineConnect=0;" vertex="1" parent="1">
          <mxGeometry x="190" y="300" width="30" height="60" as="geometry" />
        </mxCell>
        <mxCell id="NAd22-JIo6woVSlLRPpV-3" value="Admin" style="shape=umlActor;verticalLabelPosition=bottom;verticalAlign=top;html=1;outlineConnect=0;" vertex="1" parent="1">
          <mxGeometry x="310" y="325" width="30" height="60" as="geometry" />
        </mxCell>
        <mxCell id="NAd22-JIo6woVSlLRPpV-7" value="sign in" style="ellipse;whiteSpace=wrap;html=1;" vertex="1" parent="1">
          <mxGeometry x="400" y="190" width="90" height="50" as="geometry" />
        </mxCell>
        <mxCell id="NAd22-JIo6woVSlLRPpV-8" value="sign up" style="ellipse;whiteSpace=wrap;html=1;" vertex="1" parent="1">
          <mxGeometry x="400" y="80" width="90" height="50" as="geometry" />
        </mxCell>
        <mxCell id="NAd22-JIo6woVSlLRPpV-9" value="Server" style="shape=umlActor;verticalLabelPosition=bottom;verticalAlign=top;html=1;outlineConnect=0;" vertex="1" parent="1">
          <mxGeometry x="660" y="280" width="30" height="60" as="geometry" />
        </mxCell>
        <mxCell id="NAd22-JIo6woVSlLRPpV-10" value="" style="endArrow=none;html=1;rounded=0;exitX=1;exitY=0.3333333333333333;exitDx=0;exitDy=0;exitPerimeter=0;entryX=0;entryY=0.5;entryDx=0;entryDy=0;" edge="1" parent="1" source="NAd22-JIo6woVSlLRPpV-1" target="NAd22-JIo6woVSlLRPpV-8">
          <mxGeometry width="50" height="50" relative="1" as="geometry">
            <mxPoint x="300" y="140" as="sourcePoint" />
            <mxPoint x="350" y="90" as="targetPoint" />
          </mxGeometry>
        </mxCell>
        <mxCell id="NAd22-JIo6woVSlLRPpV-11" value="" style="endArrow=none;html=1;rounded=0;exitX=1;exitY=0.3333333333333333;exitDx=0;exitDy=0;exitPerimeter=0;entryX=0;entryY=0.5;entryDx=0;entryDy=0;" edge="1" parent="1" source="NAd22-JIo6woVSlLRPpV-1" target="NAd22-JIo6woVSlLRPpV-7">
          <mxGeometry width="50" height="50" relative="1" as="geometry">
            <mxPoint x="260" y="190" as="sourcePoint" />
            <mxPoint x="400" y="145" as="targetPoint" />
          </mxGeometry>
        </mxCell>
        <mxCell id="NAd22-JIo6woVSlLRPpV-12" value="" style="endArrow=none;html=1;rounded=0;exitX=1;exitY=0.5;exitDx=0;exitDy=0;entryX=0;entryY=0.3333333333333333;entryDx=0;entryDy=0;entryPerimeter=0;" edge="1" parent="1" source="NAd22-JIo6woVSlLRPpV-8" target="NAd22-JIo6woVSlLRPpV-9">
          <mxGeometry width="50" height="50" relative="1" as="geometry">
            <mxPoint x="500" y="115" as="sourcePoint" />
            <mxPoint x="640" y="70" as="targetPoint" />
          </mxGeometry>
        </mxCell>
        <mxCell id="NAd22-JIo6woVSlLRPpV-13" value="" style="endArrow=none;html=1;rounded=0;exitX=1;exitY=0.5;exitDx=0;exitDy=0;entryX=0;entryY=0.3333333333333333;entryDx=0;entryDy=0;entryPerimeter=0;" edge="1" parent="1" source="NAd22-JIo6woVSlLRPpV-7" target="NAd22-JIo6woVSlLRPpV-9">
          <mxGeometry width="50" height="50" relative="1" as="geometry">
            <mxPoint x="290" y="180" as="sourcePoint" />
            <mxPoint x="430" y="135" as="targetPoint" />
          </mxGeometry>
        </mxCell>
        <mxCell id="NAd22-JIo6woVSlLRPpV-14" value="" style="endArrow=none;dashed=1;html=1;rounded=0;entryX=0.5;entryY=1;entryDx=0;entryDy=0;exitX=1;exitY=0.3333333333333333;exitDx=0;exitDy=0;exitPerimeter=0;endFill=0;startArrow=classic;startFill=1;" edge="1" parent="1" source="NAd22-JIo6woVSlLRPpV-2" target="NAd22-JIo6woVSlLRPpV-7">
          <mxGeometry width="50" height="50" relative="1" as="geometry">
            <mxPoint x="400" y="300" as="sourcePoint" />
            <mxPoint x="450" y="250" as="targetPoint" />
          </mxGeometry>
        </mxCell>
        <mxCell id="NAd22-JIo6woVSlLRPpV-15" value="" style="endArrow=none;dashed=1;html=1;rounded=0;entryX=0.5;entryY=1;entryDx=0;entryDy=0;exitX=1;exitY=0.3333333333333333;exitDx=0;exitDy=0;exitPerimeter=0;endFill=0;startArrow=classic;startFill=1;" edge="1" parent="1" source="NAd22-JIo6woVSlLRPpV-3" target="NAd22-JIo6woVSlLRPpV-7">
          <mxGeometry width="50" height="50" relative="1" as="geometry">
            <mxPoint x="270" y="310" as="sourcePoint" />
            <mxPoint x="455" y="250" as="targetPoint" />
          </mxGeometry>
        </mxCell>
        <mxCell id="NAd22-JIo6woVSlLRPpV-16" value="" style="endArrow=none;html=1;rounded=0;entryX=0.5;entryY=1;entryDx=0;entryDy=0;exitX=0.5;exitY=0;exitDx=0;exitDy=0;startArrow=classic;startFill=1;" edge="1" parent="1" source="NAd22-JIo6woVSlLRPpV-7" target="NAd22-JIo6woVSlLRPpV-8">
          <mxGeometry width="50" height="50" relative="1" as="geometry">
            <mxPoint x="389" y="190" as="sourcePoint" />
            <mxPoint x="439" y="140" as="targetPoint" />
          </mxGeometry>
        </mxCell>
        <mxCell id="NAd22-JIo6woVSlLRPpV-18" value="message in music file" style="ellipse;whiteSpace=wrap;html=1;" vertex="1" parent="1">
          <mxGeometry x="375" y="480" width="90" height="50" as="geometry" />
        </mxCell>
        <mxCell id="NAd22-JIo6woVSlLRPpV-19" value="search shortest distance" style="ellipse;whiteSpace=wrap;html=1;" vertex="1" parent="1">
          <mxGeometry x="370" y="550" width="100" height="50" as="geometry" />
        </mxCell>
        <mxCell id="NAd22-JIo6woVSlLRPpV-20" value="" style="endArrow=none;html=1;rounded=0;exitX=1;exitY=1;exitDx=0;exitDy=0;exitPerimeter=0;entryX=0;entryY=0.5;entryDx=0;entryDy=0;" edge="1" parent="1" source="NAd22-JIo6woVSlLRPpV-2" target="NAd22-JIo6woVSlLRPpV-18">
          <mxGeometry width="50" height="50" relative="1" as="geometry">
            <mxPoint x="120" y="315" as="sourcePoint" />
            <mxPoint x="170" y="265" as="targetPoint" />
          </mxGeometry>
        </mxCell>
        <mxCell id="NAd22-JIo6woVSlLRPpV-21" value="" style="endArrow=none;html=1;rounded=0;exitX=1;exitY=1;exitDx=0;exitDy=0;exitPerimeter=0;entryX=0;entryY=0.5;entryDx=0;entryDy=0;" edge="1" parent="1" source="NAd22-JIo6woVSlLRPpV-2" target="NAd22-JIo6woVSlLRPpV-19">
          <mxGeometry width="50" height="50" relative="1" as="geometry">
            <mxPoint x="130" y="345" as="sourcePoint" />
            <mxPoint x="180" y="295" as="targetPoint" />
          </mxGeometry>
        </mxCell>
        <mxCell id="NAd22-JIo6woVSlLRPpV-22" value="" style="endArrow=none;html=1;rounded=0;exitX=1;exitY=1;exitDx=0;exitDy=0;exitPerimeter=0;entryX=0.5;entryY=1;entryDx=0;entryDy=0;" edge="1" parent="1" source="NAd22-JIo6woVSlLRPpV-2" target="NAd22-JIo6woVSlLRPpV-7">
          <mxGeometry width="50" height="50" relative="1" as="geometry">
            <mxPoint x="330" y="410" as="sourcePoint" />
            <mxPoint x="380" y="360" as="targetPoint" />
          </mxGeometry>
        </mxCell>
        <mxCell id="NAd22-JIo6woVSlLRPpV-24" value="" style="endArrow=none;html=1;rounded=0;entryX=1;entryY=0.5;entryDx=0;entryDy=0;exitX=0;exitY=1;exitDx=0;exitDy=0;exitPerimeter=0;" edge="1" parent="1" source="NAd22-JIo6woVSlLRPpV-9" target="NAd22-JIo6woVSlLRPpV-18">
          <mxGeometry width="50" height="50" relative="1" as="geometry">
            <mxPoint x="380" y="420" as="sourcePoint" />
            <mxPoint x="430" y="370" as="targetPoint" />
          </mxGeometry>
        </mxCell>
        <mxCell id="NAd22-JIo6woVSlLRPpV-26" value="" style="endArrow=none;html=1;rounded=0;entryX=1;entryY=0.5;entryDx=0;entryDy=0;" edge="1" parent="1" target="NAd22-JIo6woVSlLRPpV-19">
          <mxGeometry width="50" height="50" relative="1" as="geometry">
            <mxPoint x="660" y="340" as="sourcePoint" />
            <mxPoint x="500" y="485" as="targetPoint" />
          </mxGeometry>
        </mxCell>
        <mxCell id="NAd22-JIo6woVSlLRPpV-27" value="update DB" style="ellipse;whiteSpace=wrap;html=1;" vertex="1" parent="1">
          <mxGeometry x="414" y="330" width="90" height="50" as="geometry" />
        </mxCell>
        <mxCell id="NAd22-JIo6woVSlLRPpV-30" value="" style="endArrow=none;html=1;rounded=0;exitX=1;exitY=1;exitDx=0;exitDy=0;exitPerimeter=0;entryX=0;entryY=0.5;entryDx=0;entryDy=0;" edge="1" parent="1" source="NAd22-JIo6woVSlLRPpV-3" target="NAd22-JIo6woVSlLRPpV-27">
          <mxGeometry width="50" height="50" relative="1" as="geometry">
            <mxPoint x="370" y="440" as="sourcePoint" />
            <mxPoint x="420" y="390" as="targetPoint" />
          </mxGeometry>
        </mxCell>
        <mxCell id="NAd22-JIo6woVSlLRPpV-32" value="" style="endArrow=none;html=1;rounded=0;entryX=1;entryY=0.5;entryDx=0;entryDy=0;exitX=0;exitY=1;exitDx=0;exitDy=0;exitPerimeter=0;" edge="1" parent="1" source="NAd22-JIo6woVSlLRPpV-9" target="NAd22-JIo6woVSlLRPpV-27">
          <mxGeometry width="50" height="50" relative="1" as="geometry">
            <mxPoint x="280" y="420" as="sourcePoint" />
            <mxPoint x="330" y="370" as="targetPoint" />
          </mxGeometry>
        </mxCell>
        <mxCell id="NAd22-JIo6woVSlLRPpV-33" value="look all stats" style="ellipse;whiteSpace=wrap;html=1;" vertex="1" parent="1">
          <mxGeometry x="410" y="390" width="90" height="50" as="geometry" />
        </mxCell>
        <mxCell id="NAd22-JIo6woVSlLRPpV-34" value="" style="endArrow=classic;html=1;rounded=0;exitX=1;exitY=1;exitDx=0;exitDy=0;exitPerimeter=0;entryX=0;entryY=0.5;entryDx=0;entryDy=0;startArrow=none;startFill=0;endFill=1;" edge="1" parent="1" source="NAd22-JIo6woVSlLRPpV-3" target="NAd22-JIo6woVSlLRPpV-33">
          <mxGeometry width="50" height="50" relative="1" as="geometry">
            <mxPoint x="370" y="370" as="sourcePoint" />
            <mxPoint x="470" y="365" as="targetPoint" />
          </mxGeometry>
        </mxCell>
        <mxCell id="NAd22-JIo6woVSlLRPpV-36" value="" style="endArrow=none;html=1;rounded=0;exitX=1;exitY=0.5;exitDx=0;exitDy=0;entryX=0;entryY=1;entryDx=0;entryDy=0;entryPerimeter=0;startArrow=none;startFill=0;" edge="1" parent="1" source="NAd22-JIo6woVSlLRPpV-33" target="NAd22-JIo6woVSlLRPpV-9">
          <mxGeometry width="50" height="50" relative="1" as="geometry">
            <mxPoint x="444" y="390" as="sourcePoint" />
            <mxPoint x="494" y="340" as="targetPoint" />
          </mxGeometry>
        </mxCell>
      </root>
    </mxGraphModel>
  </diagram>
</mxfile>
